<svg xmlns="http://www.w3.org/2000/svg">
<symbol id="vk" viewBox="0 0 16 9">
<path d="M15.8574 8.02743C15.8144 7.95645 15.5484 7.38659 14.2683 6.21531C12.9282 4.98883 13.1082 5.18799 14.7223 3.06728C15.7054 1.77572 16.0984 0.986988 15.9754 0.649804C15.8584 0.328395 15.1353 0.413184 15.1353 0.413184L12.7312 0.426986C12.7312 0.426986 12.5531 0.403324 12.4201 0.481212C12.2911 0.558114 12.2081 0.735579 12.2081 0.735579C12.2081 0.735579 11.8271 1.7353 11.3191 2.58516C10.248 4.37855 9.81894 4.4732 9.64393 4.36179C9.2369 4.10249 9.33891 3.31869 9.33891 2.76263C9.33891 1.02445 9.60593 0.299803 8.81787 0.112478C8.55585 0.0503654 8.36384 0.00895679 7.69479 0.00205536C6.83672 -0.00681791 6.10967 0.00501311 5.69864 0.203183C5.42462 0.335296 5.21361 0.630086 5.34262 0.646846C5.50163 0.667551 5.86165 0.74248 6.05267 0.998819C6.29969 1.3291 6.29069 2.07248 6.29069 2.07248C6.29069 2.07248 6.4327 4.11827 5.95966 4.37263C5.63464 4.54714 5.1896 4.19122 4.23453 2.56347C3.7455 1.73037 3.37547 0.808537 3.37547 0.808537C3.37547 0.808537 3.30447 0.636987 3.17746 0.545297C3.02345 0.433888 2.80743 0.398395 2.80743 0.398395L0.521262 0.412198C0.521262 0.412198 0.178236 0.422057 0.0522271 0.568959C-0.0597811 0.700086 0.0432264 0.970227 0.0432264 0.970227C0.0432264 0.970227 1.83336 5.09827 3.85951 7.17954C5.71864 9.0873 7.8288 8.96208 7.8288 8.96208H8.78487C8.78487 8.96208 9.07389 8.93054 9.2209 8.77377C9.35691 8.62983 9.35191 8.35969 9.35191 8.35969C9.35191 8.35969 9.33291 7.09475 9.92895 6.90842C10.516 6.72504 11.2701 8.13095 12.0691 8.67222C12.6732 9.08138 13.1322 8.99166 13.1322 8.99166L15.2693 8.96208C15.2693 8.96208 16.3874 8.89406 15.8574 8.02743Z" />
</symbol>
<symbol id="youtube" viewBox="0 0 16 9">
<path d="M12.4475 0.867273C12.0949 0.235636 11.7122 0.119455 10.933 0.0752727C10.1546 0.0220909 8.19731 0 6.50163 0C4.80269 0 2.84456 0.022091 2.067 0.0744546C1.28944 0.119455 0.905937 0.234818 0.550062 0.867273C0.186875 1.49809 0 2.58464 0 4.49755C0 4.49918 0 4.5 0 4.5C0 4.50164 0 4.50245 0 4.50245V4.50409C0 6.40882 0.186875 7.50355 0.550062 8.12782C0.905937 8.75945 1.28863 8.874 2.06619 8.92718C2.84456 8.973 4.80269 9 6.50163 9C8.19731 9 10.1546 8.973 10.9338 8.928C11.713 8.87482 12.0957 8.76027 12.4483 8.12864C12.8147 7.50436 13 6.40964 13 4.50491C13 4.50491 13 4.50245 13 4.50082C13 4.50082 13 4.49918 13 4.49836C13 2.58464 12.8147 1.49809 12.4475 0.867273ZM4.875 6.95455V2.04545L8.9375 4.5L4.875 6.95455Z"/>
</symbol>
<symbol id="insta" viewBox="0 0 16 16">
<path d="M11.5845 0H4.41533C1.98072 0 0 1.98081 0 4.41542V11.5846C0 14.0193 1.98072 16 4.41533 16H11.5845C14.0193 16 16 14.0192 16 11.5846V4.41542C16.0001 1.98081 14.0193 0 11.5845 0ZM14.5805 11.5846C14.5805 13.2365 13.2365 14.5804 11.5846 14.5804H4.41533C2.76348 14.5805 1.4196 13.2365 1.4196 11.5846V4.41542C1.4196 2.76358 2.76348 1.4196 4.41533 1.4196H11.5845C13.2364 1.4196 14.5804 2.76358 14.5804 4.41542V11.5846H14.5805Z" />
<path d="M8.00011 3.87744C5.72677 3.87744 3.87732 5.72689 3.87732 8.00024C3.87732 10.2735 5.72677 12.1228 8.00011 12.1228C10.2735 12.1228 12.1229 10.2735 12.1229 8.00024C12.1229 5.72689 10.2735 3.87744 8.00011 3.87744ZM8.00011 10.7032C6.50963 10.7032 5.29692 9.49062 5.29692 8.00014C5.29692 6.50956 6.50954 5.29694 8.00011 5.29694C9.49069 5.29694 10.7033 6.50956 10.7033 8.00014C10.7033 9.49062 9.4906 10.7032 8.00011 10.7032Z"/>
<path d="M12.2957 2.67383C12.0222 2.67383 11.7535 2.78456 11.5603 2.97857C11.3662 3.17163 11.2546 3.44041 11.2546 3.71487C11.2546 3.98847 11.3663 4.25715 11.5603 4.45116C11.7534 4.64423 12.0222 4.7559 12.2957 4.7559C12.5701 4.7559 12.838 4.64423 13.032 4.45116C13.226 4.25715 13.3367 3.98838 13.3367 3.71487C13.3367 3.44041 13.226 3.17163 13.032 2.97857C12.8389 2.78456 12.5701 2.67383 12.2957 2.67383Z">
</symbol>
</svg>