<svg width="13" height="9" viewBox="0 0 13 9" fill="none" xmlns="http://www.w3.org/2000/svg">
<path d="M12.4475 0.867273C12.0949 0.235636 11.7122 0.119455 10.933 0.0752727C10.1546 0.0220909 8.19731 0 6.50163 0C4.80269 0 2.84456 0.022091 2.067 0.0744546C1.28944 0.119455 0.905937 0.234818 0.550062 0.867273C0.186875 1.49809 0 2.58464 0 4.49755C0 4.49918 0 4.5 0 4.5C0 4.50164 0 4.50245 0 4.50245V4.50409C0 6.40882 0.186875 7.50355 0.550062 8.12782C0.905937 8.75945 1.28863 8.874 2.06619 8.92718C2.84456 8.973 4.80269 9 6.50163 9C8.19731 9 10.1546 8.973 10.9338 8.928C11.713 8.87482 12.0957 8.76027 12.4483 8.12864C12.8147 7.50436 13 6.40964 13 4.50491C13 4.50491 13 4.50245 13 4.50082C13 4.50082 13 4.49918 13 4.49836C13 2.58464 12.8147 1.49809 12.4475 0.867273ZM4.875 6.95455V2.04545L8.9375 4.5L4.875 6.95455Z" fill="white"/>
</svg>
